# xmcd
#
# Track frame offsets: 
#        150
#        17608
#        67970
#        96556
#
# Disc length: 1653 seconds
#
# Revision: 1
# Processed by: cddbd v1.5.2PL0 Copyright (c) Steve Scherf et al.
# Submitted via: ExactAudioCopy v0.99pb4
#
DISCID=2c067304
DTITLE=Shane - C'est Musique
DYEAR=2000
DGENRE=Trance
TTITLE0=C'est Musique (Radio Edit)
TTITLE1=C'est Musique (Armin Van Buuren Mix)
TTITLE2=C'est Musique (Club Cut)
TTITLE3=C'est Musique (Original)
EXTD=
EXTT0=
EXTT1=
EXTT2=
EXTT3=
PLAYORDER=
